<svg xmlns="http://www.w3.org/2000/svg" viewBox="0 0 1080 1360" width="1080" height="1360" style="width: 100%; height: 100%; transform: translate3d(0px, 0px, 0px);" preserveAspectRatio="xMidYMid slice"><defs><clipPath id="__lottie_element_2"><rect width="1080" height="1360" x="0" y="0"></rect></clipPath><clipPath id="__lottie_element_11"><path d="M0,0 L268,0 L268,190 L0,190z"></path></clipPath><mask id="__lottie_element_21" mask-type="alpha"><g style="display: block;" transform="matrix(1,0,0,1,260.75,95)" opacity="1"><g opacity="1" transform="matrix(1,0,0,1,0,0)"><path fill="rgb(76,255,143)" fill-opacity="1" d=" M-65.5,-42 C-108.25,-42 -112,-2 -112,-2 C-112,-2 -104.01200103759766,14.23799991607666 -66,14 C-26,13.75 -21,-3 -21,-3 C-21,-3 -29.249000549316406,-42 -65.5,-42z"></path></g></g></mask><mask id="__lottie_element_27" mask-type="alpha"><g style="display: block;" transform="matrix(1,0,0,1,134,95)" opacity="1"><g opacity="1" transform="matrix(1,0,0,1,0,0)"><path fill="rgb(76,255,143)" fill-opacity="1" d=" M-65.5,-42 C-108.25,-42 -112,-2 -112,-2 C-112,-2 -104.01200103759766,14.23799991607666 -66,14 C-26,13.75 -21,-3 -21,-3 C-21,-3 -29.249000549316406,-42 -65.5,-42z"></path></g></g></mask><clipPath id="__lottie_element_37"><path d="M0,0 L690,0 L690,992 L0,992z"></path></clipPath><clipPath id="__lottie_element_41"><path d="M0,0 L1080,0 L1080,1080 L0,1080z"></path></clipPath><clipPath id="__lottie_element_78"><path d="M0,0 L1080,0 L1080,1080 L0,1080z"></path></clipPath></defs><g clip-path="url(#__lottie_element_2)"><g clip-path="url(#__lottie_element_37)" style="display: block;" transform="matrix(1.6622899770736694,0,0,1.6622899770736694,-17.58953857421875,-83.77883911132812)" opacity="1"><g clip-path="url(#__lottie_element_78)" style="display: block;" transform="matrix(1,0,0,1,-195,-44)" opacity="1"><g style="display: block;" transform="matrix(1,0,0,1,504.8330078125,798.1820068359375)" opacity="1"><g opacity="1" transform="matrix(1,0,0,1,0,0)"><path stroke-linecap="butt" stroke-linejoin="miter" fill-opacity="0" stroke-miterlimit="10" stroke="rgb(0,80,30)" stroke-opacity="1" stroke-width="6.5" d=" M25.52199935913086,-43.766998291015625 C25.52199935913086,-43.766998291015625 -25.52199935913086,-10.956999778747559 -25.52199935913086,43.766998291015625"></path></g></g><g style="display: block;" transform="matrix(1,0,0,1,643.8189697265625,917.72900390625)" opacity="1"><g opacity="1" transform="matrix(1,0,0,1,0,0)"><path stroke-linecap="butt" stroke-linejoin="miter" fill-opacity="0" stroke-miterlimit="10" stroke="rgb(0,80,30)" stroke-opacity="1" stroke-width="6.5" d=" M-112.94000244140625,-163.38099670410156 C-112.94000244140625,-163.38099670410156 -113.03600311279297,-74.80999755859375 -113.05699920654297,-55.19300079345703"></path></g></g><g style="display: block;" transform="matrix(1,0,0,1,720.7659912109375,637.8270263671875)" opacity="1"><g opacity="1" transform="matrix(1,0,0,1,0,0)"><path stroke-linecap="butt" stroke-linejoin="miter" fill-opacity="0" stroke-miterlimit="10" stroke="rgb(0,80,30)" stroke-opacity="1" stroke-width="6.5" d=" M-18.97599983215332,18.677000045776367 C15.54800033569336,26.93199920654297 18.89699935913086,-11.812999725341797 18.975000381469727,-19.549999237060547"></path></g></g><g style="display: block;" transform="matrix(1,0,0,1,639.447021484375,712.6820068359375)" opacity="1"><g opacity="1" transform="matrix(1,0,0,1,0,0)"><path stroke-linecap="butt" stroke-linejoin="miter" fill-opacity="0" stroke-miterlimit="10" stroke="rgb(0,80,30)" stroke-opacity="1" stroke-width="6.5" d=" M-109.20899963378906,-38.32899856567383 C-45.685001373291016,-38.32899856567383 1.4220000505447388,38.32899856567383 56.38100051879883,38.32899856567383 C111.33999633789062,38.32899856567383 109.197998046875,-11.920000076293945 109.197998046875,-11.920000076293945"></path></g></g><g style="display: block;" transform="matrix(1,0,0,1,548.5139770507812,647.4169921875)" opacity="1"><g opacity="1" transform="matrix(1,0,0,1,0,0)"><path stroke-linecap="butt" stroke-linejoin="miter" fill-opacity="0" stroke-miterlimit="10" stroke="rgb(0,80,30)" stroke-opacity="1" stroke-width="6.5" d=" M-18.23699951171875,-193.281005859375 C42.95899963378906,-146.54800415039062 127.76100158691406,-97.802001953125 127.76100158691406,-37.2599983215332 C127.76100158691406,71.2300033569336 -127.76100158691406,132.5030059814453 -127.76100158691406,193.281005859375"></path></g></g><g style="display: block;" transform="matrix(1,0,0,1,554.968994140625,423.7980041503906)" opacity="1"><g opacity="1" transform="matrix(1,0,0,1,0,0)"><path stroke-linecap="butt" stroke-linejoin="miter" fill-opacity="0" stroke-miterlimit="10" stroke="rgb(0,80,30)" stroke-opacity="1" stroke-width="6.5" d=" M-23.55500030517578,-17.85700035095215 C49.81100082397461,-17.85700035095215 57.03099822998047,38.547000885009766 57.03099822998047,43.233001708984375"></path></g></g><g style="display: block;" transform="matrix(1,0,0,1,688.0549926757812,426.22198486328125)" opacity="1"><g opacity="1" transform="matrix(1,0,0,1,0,0)"><path stroke-linecap="butt" stroke-linejoin="miter" fill-opacity="0" stroke-miterlimit="10" stroke="rgb(0,80,30)" stroke-opacity="1" stroke-width="6.5" d=" M-37.310001373291016,-16.850000381469727 C-37.310001373291016,-16.850000381469727 -28.850000381469727,16.850000381469727 10.144000053405762,16.850000381469727 C36.965999603271484,16.850000381469727 37.310001373291016,-10.315999984741211 37.310001373291016,-10.315999984741211"></path></g></g><g style="display: block;" transform="matrix(1,0,0,1,657.9860229492188,439.9150085449219)" opacity="1"><g opacity="1" transform="matrix(1,0,0,1,0,0)"><path stroke-linecap="butt" stroke-linejoin="miter" fill-opacity="0" stroke-miterlimit="10" stroke="rgb(0,80,30)" stroke-opacity="1" stroke-width="6.5" d=" M-127.83000183105469,-54.86199951171875 C-127.83000183105469,-54.86199951171875 -111.4000015258789,-89.5479965209961 -67.58599853515625,-89.5479965209961 C-1.6950000524520874,-89.5479965209961 -14.519000053405762,10.109999656677246 34.32899856567383,34.90399932861328 C61.67100143432617,48.78200149536133 127.83000183105469,20.733999252319336 127.83000183105469,89.5479965209961"></path></g></g><g style="display: block;" transform="matrix(1,0,0,1,643.8189697265625,495.22900390625)" opacity="1"><g opacity="1" transform="matrix(1,0,0,1,0,0)"><path stroke-linecap="butt" stroke-linejoin="miter" fill-opacity="0" stroke-miterlimit="10" stroke="rgb(0,80,30)" stroke-opacity="1" stroke-width="6.5" d=" M-112.94000244140625,-231.38099670410156 C-112.94000244140625,-231.38099670410156 -113.12899780273438,-152.8249969482422 -113.12899780273438,-152.8249969482422 C-113.12899780273438,-152.8249969482422 -113.12899780273438,-58.37699890136719 -113.12899780273438,-58.37699890136719 C-113.12899780273438,66.58200073242188 -11.829999923706055,167.88099670410156 113.12899780273438,167.88099670410156 C113.12899780273438,167.88099670410156 113.12899780273438,167.88099670410156 113.12899780273438,167.88099670410156"></path></g></g><g style="display: block;" transform="matrix(1,0,0,1,-5.75,-332)" opacity="1"><g opacity="1" transform="matrix(1,0,0,1,642.18798828125,589.0750122070312)"><path stroke-linecap="butt" stroke-linejoin="miter" fill-opacity="0" stroke-miterlimit="10" stroke="rgb(0,80,30)" stroke-opacity="1" stroke-width="6.5" d=" M-104.66500091552734,11.470000267028809 C-105.80799865722656,31.128000259399414 -91.74099731445312,55.20399856567383 -66.2959976196289,65.81900024414062 C-50.459999084472656,72.42500305175781 -27.638999938964844,72.21900177001953 -13.937999725341797,64.68900299072266"></path></g><g opacity="1" transform="matrix(1,0,0,1,605.8690185546875,560.469970703125)"><path stroke-linecap="butt" stroke-linejoin="miter" fill-opacity="0" stroke-miterlimit="10" stroke="rgb(0,80,30)" stroke-opacity="1" stroke-width="6.5" d=" M-68.63999938964844,35.71799850463867 C-67.5979995727539,58.36800003051758 -55.34400177001953,70.13899993896484 -42.91999816894531,75.93299865722656 C-29.665000915527344,82.11499786376953 -14.96399974822998,80.47000122070312 -4.025000095367432,74.13099670410156"></path></g></g><g style="display: block;" transform="matrix(1,0,0,1,540,540)" opacity="1"></g></g><g clip-path="url(#__lottie_element_41)" style="display: block;" transform="matrix(-1,0,0,1,866,-44)" opacity="1"><g style="display: block;" transform="matrix(1,0,0,1,504.8330078125,798.1820068359375)" opacity="1"><g opacity="1" transform="matrix(1,0,0,1,0,0)"><path stroke-linecap="butt" stroke-linejoin="miter" fill-opacity="0" stroke-miterlimit="10" stroke="rgb(0,80,30)" stroke-opacity="1" stroke-width="6.5" d=" M25.52199935913086,-43.766998291015625 C25.52199935913086,-43.766998291015625 -25.52199935913086,-10.956999778747559 -25.52199935913086,43.766998291015625"></path></g></g><g style="display: block;" transform="matrix(1,0,0,1,643.8189697265625,917.72900390625)" opacity="1"><g opacity="1" transform="matrix(1,0,0,1,0,0)"><path stroke-linecap="butt" stroke-linejoin="miter" fill-opacity="0" stroke-miterlimit="10" stroke="rgb(0,80,30)" stroke-opacity="1" stroke-width="6.5" d=" M-112.94000244140625,-163.38099670410156 C-112.94000244140625,-163.38099670410156 -113.03600311279297,-74.80999755859375 -113.05699920654297,-55.19300079345703"></path></g></g><g style="display: block;" transform="matrix(1,0,0,1,720.7659912109375,637.8270263671875)" opacity="1"><g opacity="1" transform="matrix(1,0,0,1,0,0)"><path stroke-linecap="butt" stroke-linejoin="miter" fill-opacity="0" stroke-miterlimit="10" stroke="rgb(0,80,30)" stroke-opacity="1" stroke-width="6.5" d=" M-18.97599983215332,18.677000045776367 C15.54800033569336,26.93199920654297 18.89699935913086,-11.812999725341797 18.975000381469727,-19.549999237060547"></path></g></g><g style="display: block;" transform="matrix(1,0,0,1,639.447021484375,712.6820068359375)" opacity="1"><g opacity="1" transform="matrix(1,0,0,1,0,0)"><path stroke-linecap="butt" stroke-linejoin="miter" fill-opacity="0" stroke-miterlimit="10" stroke="rgb(0,80,30)" stroke-opacity="1" stroke-width="6.5" d=" M-109.20899963378906,-38.32899856567383 C-45.685001373291016,-38.32899856567383 1.4220000505447388,38.32899856567383 56.38100051879883,38.32899856567383 C111.33999633789062,38.32899856567383 109.197998046875,-11.920000076293945 109.197998046875,-11.920000076293945"></path></g></g><g style="display: block;" transform="matrix(1,0,0,1,548.5139770507812,647.4169921875)" opacity="1"><g opacity="1" transform="matrix(1,0,0,1,0,0)"><path stroke-linecap="butt" stroke-linejoin="miter" fill-opacity="0" stroke-miterlimit="10" stroke="rgb(0,80,30)" stroke-opacity="1" stroke-width="6.5" d=" M-18.23699951171875,-193.281005859375 C42.95899963378906,-146.54800415039062 127.76100158691406,-97.802001953125 127.76100158691406,-37.2599983215332 C127.76100158691406,71.2300033569336 -127.76100158691406,132.5030059814453 -127.76100158691406,193.281005859375"></path></g></g><g style="display: block;" transform="matrix(1,0,0,1,554.968994140625,423.7980041503906)" opacity="1"><g opacity="1" transform="matrix(1,0,0,1,0,0)"><path stroke-linecap="butt" stroke-linejoin="miter" fill-opacity="0" stroke-miterlimit="10" stroke="rgb(0,80,30)" stroke-opacity="1" stroke-width="6.5" d=" M-23.55500030517578,-17.85700035095215 C49.81100082397461,-17.85700035095215 57.03099822998047,38.547000885009766 57.03099822998047,43.233001708984375"></path></g></g><g style="display: block;" transform="matrix(1,0,0,1,688.0549926757812,426.22198486328125)" opacity="1"><g opacity="1" transform="matrix(1,0,0,1,0,0)"><path stroke-linecap="butt" stroke-linejoin="miter" fill-opacity="0" stroke-miterlimit="10" stroke="rgb(0,80,30)" stroke-opacity="1" stroke-width="6.5" d=" M-37.310001373291016,-16.850000381469727 C-37.310001373291016,-16.850000381469727 -28.850000381469727,16.850000381469727 10.144000053405762,16.850000381469727 C36.965999603271484,16.850000381469727 37.310001373291016,-10.315999984741211 37.310001373291016,-10.315999984741211"></path></g></g><g style="display: block;" transform="matrix(1,0,0,1,657.9860229492188,439.9150085449219)" opacity="1"><g opacity="1" transform="matrix(1,0,0,1,0,0)"><path stroke-linecap="butt" stroke-linejoin="miter" fill-opacity="0" stroke-miterlimit="10" stroke="rgb(0,80,30)" stroke-opacity="1" stroke-width="6.5" d=" M-127.83000183105469,-54.86199951171875 C-127.83000183105469,-54.86199951171875 -111.4000015258789,-89.5479965209961 -67.58599853515625,-89.5479965209961 C-1.6950000524520874,-89.5479965209961 -14.519000053405762,10.109999656677246 34.32899856567383,34.90399932861328 C61.67100143432617,48.78200149536133 127.83000183105469,20.733999252319336 127.83000183105469,89.5479965209961"></path></g></g><g style="display: block;" transform="matrix(1,0,0,1,643.8189697265625,495.22900390625)" opacity="1"><g opacity="1" transform="matrix(1,0,0,1,0,0)"><path stroke-linecap="butt" stroke-linejoin="miter" fill-opacity="0" stroke-miterlimit="10" stroke="rgb(0,80,30)" stroke-opacity="1" stroke-width="6.5" d=" M-112.94000244140625,-231.38099670410156 C-112.94000244140625,-231.38099670410156 -113.12899780273438,-152.8249969482422 -113.12899780273438,-152.8249969482422 C-113.12899780273438,-152.8249969482422 -113.12899780273438,-58.37699890136719 -113.12899780273438,-58.37699890136719 C-113.12899780273438,66.58200073242188 -11.829999923706055,167.88099670410156 113.12899780273438,167.88099670410156 C113.12899780273438,167.88099670410156 113.12899780273438,167.88099670410156 113.12899780273438,167.88099670410156"></path></g></g><g style="display: block;" transform="matrix(1,0,0,1,-5.75,-332)" opacity="1"><g opacity="1" transform="matrix(1,0,0,1,642.18798828125,589.0750122070312)"><path stroke-linecap="butt" stroke-linejoin="miter" fill-opacity="0" stroke-miterlimit="10" stroke="rgb(0,80,30)" stroke-opacity="1" stroke-width="6.5" d=" M-104.66500091552734,11.470000267028809 C-105.80799865722656,31.128000259399414 -91.74099731445312,55.20399856567383 -66.2959976196289,65.81900024414062 C-50.459999084472656,72.42500305175781 -27.638999938964844,72.21900177001953 -13.937999725341797,64.68900299072266"></path></g><g opacity="1" transform="matrix(1,0,0,1,605.8690185546875,560.469970703125)"><path stroke-linecap="butt" stroke-linejoin="miter" fill-opacity="0" stroke-miterlimit="10" stroke="rgb(0,80,30)" stroke-opacity="1" stroke-width="6.5" d=" M-68.63999938964844,35.71799850463867 C-67.5979995727539,58.36800003051758 -55.34400177001953,70.13899993896484 -42.91999816894531,75.93299865722656 C-29.665000915527344,82.11499786376953 -14.96399974822998,80.47000122070312 -4.025000095367432,74.13099670410156"></path></g></g><g style="display: block;" transform="matrix(1,0,0,1,540,540)" opacity="1"></g></g></g><g clip-path="url(#__lottie_element_11)" style="display: block;" transform="matrix(0.6862695217132568,0,0,0.6862695217132568,450.82574462890625,164.01121520996094)" opacity="1"><g style="display: block;" transform="matrix(1.5199999809265137,0,0,1.5199999809265137,129.8459930419922,123.2979965209961)" opacity="1"><g opacity="1" transform="matrix(1,0,0,1,0,0)"><path stroke-linecap="butt" stroke-linejoin="round" fill-opacity="0" stroke="rgb(0,80,30)" stroke-opacity="1" stroke-width="8" d=" M18.733388900756836,-5.182421684265137 C15.471821784973145,0.882233202457428 8.336709976196289,5.129000186920166 0,5.129000186920166 C-8.325961112976074,5.129000186920166 -15.488637924194336,0.892573893070221 -18.74371910095215,-5.191033840179443"></path></g></g><g style="display: block;" mask="url(#__lottie_element_27)"><g transform="matrix(1.5199980735778809,0,0,1.5199995040893555,57.89558792114258,76.11111450195312)" opacity="1"><g opacity="1" transform="matrix(1,0,0,1,0,0)"><path fill="rgb(0,80,30)" fill-opacity="1" d=" M11.510000228881836,0 C11.510000228881836,6.35699987411499 6.35699987411499,11.510000228881836 0,11.510000228881836 C-6.35699987411499,11.510000228881836 -11.510000228881836,6.35699987411499 -11.510000228881836,0 C-11.510000228881836,-6.35699987411499 -6.35699987411499,-11.510000228881836 0,-11.510000228881836 C6.35699987411499,-11.510000228881836 11.510000228881836,-6.35699987411499 11.510000228881836,0z"></path></g></g></g><g style="display: block;" mask="url(#__lottie_element_21)"><g transform="matrix(1.5199980735778809,0,0,1.5199995040893555,182.64059448242188,76.11111450195312)" opacity="1"><g opacity="1" transform="matrix(1,0,0,1,0,0)"><path fill="rgb(0,80,30)" fill-opacity="1" d=" M11.510000228881836,0 C11.510000228881836,6.35699987411499 6.35699987411499,11.510000228881836 0,11.510000228881836 C-6.35699987411499,11.510000228881836 -11.510000228881836,6.35699987411499 -11.510000228881836,0 C-11.510000228881836,-6.35699987411499 -6.35699987411499,-11.510000228881836 0,-11.510000228881836 C6.35699987411499,-11.510000228881836 11.510000228881836,-6.35699987411499 11.510000228881836,0z"></path></g></g></g><g style="display: block;" transform="matrix(1.5199999809265137,0,0,1.5199999809265137,67.7300033569336,73.01200103759766)" opacity="1"><g opacity="1" transform="matrix(1,0,0,1,0,0)"><path stroke-linecap="butt" stroke-linejoin="round" fill-opacity="0" stroke="rgb(0,80,30)" stroke-opacity="1" stroke-width="8" d=" M-29.84000015258789,12.803000450134277 C-29.84000015258789,-1.3389999866485596 -16.479999542236328,-12.803000450134277 0,-12.803000450134277 C16.479999542236328,-12.803000450134277 29.84000015258789,-1.3389999866485596 29.84000015258789,12.803000450134277"></path></g></g><g style="display: block;" transform="matrix(1.5199999809265137,0,0,1.5199999809265137,192.47500610351562,73.01200103759766)" opacity="1"><g opacity="1" transform="matrix(1,0,0,1,0,0)"><path stroke-linecap="butt" stroke-linejoin="round" fill-opacity="0" stroke="rgb(0,80,30)" stroke-opacity="1" stroke-width="8" d=" M-29.84000015258789,12.803000450134277 C-29.84000015258789,-1.3389999866485596 -16.479999542236328,-12.803000450134277 0,-12.803000450134277 C16.479999542236328,-12.803000450134277 29.84000015258789,-1.3389999866485596 29.84000015258789,12.803000450134277"></path></g></g></g><g style="display: block;" transform="matrix(1,0,0,1,540,540)" opacity="1"></g><g style="display: block;" transform="matrix(0.6862695217132568,0,0,0.6862695217132568,539.6009521484375,190.32081604003906)" opacity="1"><g opacity="1" transform="matrix(1,0,0,1,0,0)"><path stroke-linecap="butt" stroke-linejoin="miter" fill-opacity="0" stroke-miterlimit="10" stroke="rgb(0,80,30)" stroke-opacity="1" stroke-width="16.5" d=" M79.7969970703125,-52.58000183105469 C78.17900085449219,-50.96200180053711 76.64700317382812,-49.31800079345703 75.09400177001953,-47.67900085449219 C75.15499877929688,-49.935001373291016 75.23400115966797,-52.18199920654297 75.23400115966797,-54.470001220703125 C75.23400115966797,-56.82099914550781 75.20099639892578,-59.15599822998047 75.13700103759766,-61.4739990234375 C72.48400115966797,-157.66000366210938 -72.48400115966797,-157.66000366210938 -75.13700103759766,-61.4739990234375 C-75.20099639892578,-59.15599822998047 -75.23400115966797,-56.82099914550781 -75.23400115966797,-54.470001220703125 C-75.23400115966797,-52.18199920654297 -75.15499877929688,-49.935001373291016 -75.09400177001953,-47.67900085449219 C-76.64700317382812,-49.31800079345703 -78.17900085449219,-50.96200180053711 -79.7969970703125,-52.58000183105469 C-81.45999908447266,-54.24300003051758 -83.13600158691406,-55.87200164794922 -84.82099914550781,-57.46699905395508 C-154.71200561523438,-123.60299682617188 -257.2170104980469,-21.097999572753906 -191.08099365234375,48.792999267578125 C-189.48599243164062,50.47800064086914 -187.85800170898438,52.15299987792969 -186.19400024414062,53.81700134277344 C-106.39700317382812,133.61399841308594 -0.017000000923871994,133.86300659179688 -0.017000000923871994,133.86300659179688 C-0.017000000923871994,133.86300659179688 106.39700317382812,133.61399841308594 186.19400024414062,53.81700134277344 C187.85800170898438,52.15299987792969 189.48599243164062,50.47800064086914 191.08099365234375,48.792999267578125 C257.2170104980469,-21.097999572753906 154.71200561523438,-123.60299682617188 84.82099914550781,-57.46699905395508 C83.13600158691406,-55.87200164794922 81.45999908447266,-54.24300003051758 79.7969970703125,-52.58000183105469z"></path></g></g></g></svg>